<mxfile host="app.diagrams.net" modified="2022-02-04T08:26:48.110Z" agent="5.0 (Windows NT 10.0; Win64; x64) AppleWebKit/537.36 (KHTML, like Gecko) Chrome/97.0.4692.99 Safari/537.36" etag="5cOxFZcjueK5hrPpsbNw" version="16.4.11" type="github">
  <diagram id="mBwHzhV9_IOgeyGkt-xQ" name="영업정보시스템">
    <mxGraphModel dx="1422" dy="786" grid="1" gridSize="10" guides="1" tooltips="1" connect="1" arrows="1" fold="1" page="1" pageScale="1" pageWidth="1169" pageHeight="827" math="0" shadow="0">
      <root>
        <mxCell id="0" />
        <mxCell id="1" parent="0" />
        <mxCell id="MboyQYwPfhGJVhCBYUrk-1" value="" style="rounded=0;whiteSpace=wrap;html=1;fontSize=18;fillColor=none;" vertex="1" parent="1">
          <mxGeometry x="40" y="40" width="1080" height="750" as="geometry" />
        </mxCell>
        <mxCell id="MboyQYwPfhGJVhCBYUrk-2" value="" style="edgeStyle=orthogonalEdgeStyle;rounded=0;orthogonalLoop=1;jettySize=auto;html=1;fontSize=20;startArrow=none;" edge="1" parent="1" source="MboyQYwPfhGJVhCBYUrk-8" target="MboyQYwPfhGJVhCBYUrk-5">
          <mxGeometry relative="1" as="geometry" />
        </mxCell>
        <mxCell id="MboyQYwPfhGJVhCBYUrk-3" style="edgeStyle=orthogonalEdgeStyle;rounded=0;orthogonalLoop=1;jettySize=auto;html=1;exitX=1;exitY=0.5;exitDx=0;exitDy=0;entryX=0.068;entryY=0.475;entryDx=0;entryDy=0;entryPerimeter=0;fontSize=17;endArrow=blockThin;endFill=1;" edge="1" parent="1" source="MboyQYwPfhGJVhCBYUrk-4" target="MboyQYwPfhGJVhCBYUrk-25">
          <mxGeometry relative="1" as="geometry" />
        </mxCell>
        <mxCell id="MboyQYwPfhGJVhCBYUrk-4" value="&lt;font style=&quot;font-size: 17px&quot;&gt;거래내역&lt;br&gt;(매입,매출)&lt;br&gt;&lt;/font&gt;" style="shape=datastore;whiteSpace=wrap;html=1;fontSize=17;fontStyle=1" vertex="1" parent="1">
          <mxGeometry x="473.76" y="379.75" width="120" height="140" as="geometry" />
        </mxCell>
        <mxCell id="MboyQYwPfhGJVhCBYUrk-5" value="&lt;font style=&quot;font-size: 17px&quot;&gt;거래처&lt;br&gt;&lt;/font&gt;" style="shape=datastore;whiteSpace=wrap;html=1;fontSize=17;fontStyle=1" vertex="1" parent="1">
          <mxGeometry x="483.76" y="624.75" width="100" height="100" as="geometry" />
        </mxCell>
        <mxCell id="MboyQYwPfhGJVhCBYUrk-6" style="edgeStyle=orthogonalEdgeStyle;rounded=0;orthogonalLoop=1;jettySize=auto;html=1;entryX=0.5;entryY=0;entryDx=0;entryDy=0;fontSize=20;" edge="1" parent="1" source="MboyQYwPfhGJVhCBYUrk-7" target="MboyQYwPfhGJVhCBYUrk-11">
          <mxGeometry relative="1" as="geometry" />
        </mxCell>
        <mxCell id="MboyQYwPfhGJVhCBYUrk-7" value="Sales" style="html=1;verticalLabelPosition=bottom;align=center;labelBackgroundColor=#ffffff;verticalAlign=top;strokeWidth=2;strokeColor=#0080F0;shadow=0;dashed=0;shape=mxgraph.ios7.icons.user;fontSize=20;spacing=2;aspect=fixed;" vertex="1" parent="1">
          <mxGeometry x="132" y="183.25" width="60" height="60" as="geometry" />
        </mxCell>
        <mxCell id="MboyQYwPfhGJVhCBYUrk-8" value="" style="sketch=0;pointerEvents=1;shadow=0;dashed=0;html=1;strokeColor=none;fillColor=#505050;labelPosition=center;verticalLabelPosition=bottom;verticalAlign=top;outlineConnect=0;align=center;shape=mxgraph.office.communications.exchange_active_sync;fillColor=#2072B8;fontSize=20;" vertex="1" parent="1">
          <mxGeometry x="509.26" y="550" width="49" height="49" as="geometry" />
        </mxCell>
        <mxCell id="MboyQYwPfhGJVhCBYUrk-9" value="" style="edgeStyle=orthogonalEdgeStyle;rounded=0;orthogonalLoop=1;jettySize=auto;html=1;fontSize=20;endArrow=none;" edge="1" parent="1" source="MboyQYwPfhGJVhCBYUrk-4" target="MboyQYwPfhGJVhCBYUrk-8">
          <mxGeometry relative="1" as="geometry">
            <mxPoint x="518.76" y="563.2499999999998" as="sourcePoint" />
            <mxPoint x="518.76" y="663.2500000000002" as="targetPoint" />
          </mxGeometry>
        </mxCell>
        <mxCell id="MboyQYwPfhGJVhCBYUrk-10" style="edgeStyle=orthogonalEdgeStyle;rounded=0;orthogonalLoop=1;jettySize=auto;html=1;entryX=0;entryY=0.5;entryDx=0;entryDy=0;fontSize=20;exitX=0.5;exitY=1;exitDx=0;exitDy=0;" edge="1" parent="1" source="MboyQYwPfhGJVhCBYUrk-11" target="MboyQYwPfhGJVhCBYUrk-4">
          <mxGeometry relative="1" as="geometry" />
        </mxCell>
        <mxCell id="MboyQYwPfhGJVhCBYUrk-11" value="&lt;span style=&quot;background-color: rgb(255, 255, 255); font-size: 18px;&quot;&gt;Upload Excel&lt;/span&gt;" style="shape=process;whiteSpace=wrap;html=1;backgroundOutline=1;fontSize=18;size=0.05263157894736842;" vertex="1" parent="1">
          <mxGeometry x="243.76" y="313.25" width="190" height="41" as="geometry" />
        </mxCell>
        <mxCell id="MboyQYwPfhGJVhCBYUrk-12" style="edgeStyle=orthogonalEdgeStyle;rounded=0;orthogonalLoop=1;jettySize=auto;html=1;fontSize=20;endArrow=classic;endFill=1;entryX=0.5;entryY=0;entryDx=0;entryDy=0;" edge="1" parent="1" source="MboyQYwPfhGJVhCBYUrk-13" target="MboyQYwPfhGJVhCBYUrk-16">
          <mxGeometry relative="1" as="geometry">
            <mxPoint x="603.76" y="233.25" as="targetPoint" />
          </mxGeometry>
        </mxCell>
        <mxCell id="MboyQYwPfhGJVhCBYUrk-13" value="Sales" style="html=1;verticalLabelPosition=top;align=center;labelBackgroundColor=#ffffff;verticalAlign=bottom;strokeWidth=2;strokeColor=#0080F0;shadow=0;dashed=0;shape=mxgraph.ios7.icons.user;fontSize=20;spacing=2;aspect=fixed;labelPosition=center;" vertex="1" parent="1">
          <mxGeometry x="503.76" y="103.25" width="60" height="60" as="geometry" />
        </mxCell>
        <mxCell id="MboyQYwPfhGJVhCBYUrk-14" style="edgeStyle=orthogonalEdgeStyle;rounded=0;orthogonalLoop=1;jettySize=auto;html=1;entryX=0.5;entryY=0;entryDx=0;entryDy=0;fontSize=20;endArrow=classic;endFill=1;" edge="1" parent="1" source="MboyQYwPfhGJVhCBYUrk-16" target="MboyQYwPfhGJVhCBYUrk-4">
          <mxGeometry relative="1" as="geometry" />
        </mxCell>
        <mxCell id="MboyQYwPfhGJVhCBYUrk-15" style="edgeStyle=orthogonalEdgeStyle;rounded=0;orthogonalLoop=1;jettySize=auto;html=1;entryX=0;entryY=0.5;entryDx=0;entryDy=0;fontSize=20;endArrow=classic;endFill=1;" edge="1" parent="1" source="MboyQYwPfhGJVhCBYUrk-16" target="MboyQYwPfhGJVhCBYUrk-22">
          <mxGeometry relative="1" as="geometry" />
        </mxCell>
        <mxCell id="MboyQYwPfhGJVhCBYUrk-16" value="&lt;font style=&quot;font-size: 17px&quot;&gt;견적&lt;br&gt;&lt;/font&gt;" style="shape=datastore;whiteSpace=wrap;html=1;fontSize=17;fontStyle=1" vertex="1" parent="1">
          <mxGeometry x="488.76" y="202.75" width="90" height="100" as="geometry" />
        </mxCell>
        <mxCell id="MboyQYwPfhGJVhCBYUrk-17" style="edgeStyle=orthogonalEdgeStyle;rounded=0;orthogonalLoop=1;jettySize=auto;html=1;fontSize=18;endArrow=classic;endFill=1;" edge="1" parent="1" source="MboyQYwPfhGJVhCBYUrk-18" target="MboyQYwPfhGJVhCBYUrk-24">
          <mxGeometry relative="1" as="geometry" />
        </mxCell>
        <mxCell id="MboyQYwPfhGJVhCBYUrk-18" value="Account &lt;br style=&quot;font-size: 16px;&quot;&gt;Manager" style="html=1;verticalLabelPosition=middle;align=left;labelBackgroundColor=#ffffff;verticalAlign=middle;strokeWidth=2;strokeColor=#0080F0;shadow=0;dashed=0;shape=mxgraph.ios7.icons.user;fontSize=16;spacing=2;aspect=fixed;labelPosition=right;" vertex="1" parent="1">
          <mxGeometry x="879.14" y="290" width="60" height="60" as="geometry" />
        </mxCell>
        <mxCell id="MboyQYwPfhGJVhCBYUrk-19" style="edgeStyle=orthogonalEdgeStyle;rounded=0;orthogonalLoop=1;jettySize=auto;html=1;fontSize=20;endArrow=classic;endFill=1;" edge="1" parent="1" source="MboyQYwPfhGJVhCBYUrk-20" target="MboyQYwPfhGJVhCBYUrk-22">
          <mxGeometry relative="1" as="geometry" />
        </mxCell>
        <mxCell id="MboyQYwPfhGJVhCBYUrk-20" value="Sales" style="html=1;verticalLabelPosition=top;align=center;labelBackgroundColor=#ffffff;verticalAlign=bottom;strokeWidth=2;strokeColor=#0080F0;shadow=0;dashed=0;shape=mxgraph.ios7.icons.user;fontSize=20;spacing=2;aspect=fixed;labelPosition=center;" vertex="1" parent="1">
          <mxGeometry x="693.76" y="103.25" width="60" height="60" as="geometry" />
        </mxCell>
        <mxCell id="MboyQYwPfhGJVhCBYUrk-21" style="edgeStyle=orthogonalEdgeStyle;rounded=0;orthogonalLoop=1;jettySize=auto;html=1;entryX=1;entryY=0.3;entryDx=0;entryDy=0;fontSize=20;endArrow=classic;endFill=1;" edge="1" parent="1" source="MboyQYwPfhGJVhCBYUrk-22" target="MboyQYwPfhGJVhCBYUrk-4">
          <mxGeometry relative="1" as="geometry">
            <Array as="points">
              <mxPoint x="724" y="422" />
            </Array>
          </mxGeometry>
        </mxCell>
        <mxCell id="MboyQYwPfhGJVhCBYUrk-22" value="&lt;span style=&quot;background-color: rgb(255 , 255 , 255)&quot;&gt;수주&lt;/span&gt;" style="shape=process;whiteSpace=wrap;html=1;backgroundOutline=1;fontSize=20;size=0.1;" vertex="1" parent="1">
          <mxGeometry x="673.76" y="222.75" width="100" height="60" as="geometry" />
        </mxCell>
        <mxCell id="MboyQYwPfhGJVhCBYUrk-23" style="edgeStyle=orthogonalEdgeStyle;rounded=0;orthogonalLoop=1;jettySize=auto;html=1;fontSize=20;endArrow=classic;endFill=1;" edge="1" parent="1" source="MboyQYwPfhGJVhCBYUrk-24">
          <mxGeometry relative="1" as="geometry">
            <mxPoint x="594" y="433" as="targetPoint" />
          </mxGeometry>
        </mxCell>
        <mxCell id="MboyQYwPfhGJVhCBYUrk-24" value="계산서발행처리" style="shape=process;whiteSpace=wrap;html=1;backgroundOutline=1;fontSize=18;size=0.05555555555555555;" vertex="1" parent="1">
          <mxGeometry x="820" y="413" width="180" height="40" as="geometry" />
        </mxCell>
        <mxCell id="MboyQYwPfhGJVhCBYUrk-25" value="Chief" style="html=1;verticalLabelPosition=top;align=center;labelBackgroundColor=#ffffff;verticalAlign=bottom;strokeWidth=2;strokeColor=#0080F0;shadow=0;dashed=0;shape=mxgraph.ios7.icons.user;fontSize=20;spacing=2;aspect=fixed;labelPosition=center;" vertex="1" parent="1">
          <mxGeometry x="730" y="500" width="60" height="60" as="geometry" />
        </mxCell>
        <mxCell id="MboyQYwPfhGJVhCBYUrk-26" value="Sales" style="html=1;verticalLabelPosition=top;align=center;labelBackgroundColor=#ffffff;verticalAlign=bottom;strokeWidth=2;strokeColor=#0080F0;shadow=0;dashed=0;shape=mxgraph.ios7.icons.user;fontSize=20;spacing=2;aspect=fixed;labelPosition=center;" vertex="1" parent="1">
          <mxGeometry x="800" y="500" width="60" height="60" as="geometry" />
        </mxCell>
        <mxCell id="MboyQYwPfhGJVhCBYUrk-27" value="영업정보 시스템" style="rounded=1;whiteSpace=wrap;fontSize=20;fontStyle=1;fillColor=none;strokeColor=none;arcSize=0;backgroundOutline=0;align=center;spacing=12;html=1;" vertex="1" parent="1">
          <mxGeometry x="40" y="40" width="180" height="40" as="geometry" />
        </mxCell>
        <mxCell id="MboyQYwPfhGJVhCBYUrk-28" value="매입/매출 통계" style="shape=parallelogram;perimeter=parallelogramPerimeter;whiteSpace=wrap;html=1;fixedSize=1;fontSize=18;verticalAlign=middle;sketch=0;dashed=0;fontStyle=0;rounded=1;size=5.199999999999818;spacing=10;" vertex="1" parent="1">
          <mxGeometry x="720" y="580" width="270" height="30" as="geometry" />
        </mxCell>
        <mxCell id="MboyQYwPfhGJVhCBYUrk-29" value="거래처별 매출, 마진 현황" style="shape=parallelogram;perimeter=parallelogramPerimeter;whiteSpace=wrap;html=1;fixedSize=1;fontSize=18;verticalAlign=middle;sketch=0;dashed=0;fontStyle=0;rounded=1;size=5.199999999999818;spacing=10;" vertex="1" parent="1">
          <mxGeometry x="720" y="615" width="270" height="30" as="geometry" />
        </mxCell>
        <mxCell id="MboyQYwPfhGJVhCBYUrk-30" value="벤더 인보이스 추적" style="shape=parallelogram;perimeter=parallelogramPerimeter;whiteSpace=wrap;html=1;fixedSize=1;fontSize=18;verticalAlign=middle;sketch=0;dashed=0;fontStyle=0;rounded=1;size=5.199999999999818;spacing=10;" vertex="1" parent="1">
          <mxGeometry x="720" y="650" width="270" height="30" as="geometry" />
        </mxCell>
        <mxCell id="MboyQYwPfhGJVhCBYUrk-31" value="" style="shape=image;verticalLabelPosition=bottom;labelBackgroundColor=default;verticalAlign=top;aspect=fixed;imageAspect=0;image=data:image/png,iVBORw0KGgoAAAANSUhEUgAAA2QAAAH4CAYAAAAl0y7ZAAAACXBIWXMAAAsTAAALEwEAmpwYAAAAGXRFWHRTb2Z0d2FyZQBBZG9iZSBJbWFnZVJlYWR5ccllPAAAUI1JREFUeNrs3Ql03OV9//uvrX3fd8m2LAvk3cbBGENsAw6Fm0Ag6U2hzb8NDekpt6dL2qTtuaX9t/+mPV3+J2mSm/qmIYHkJOBwEiAQrgkFYztGlhftq61dsnZLI41G22jx1TMgY0uWNaP5rTPv1zmD5dHM7/eb5/ebYT5+nuf7rLl69arAXg4cPLhr/g9123DdDQAAAMGl7cPb8Pyt4tTJkydoEvtZQyCzRQBLnP/jsQ9vh+ZvCbQKAAAAbuLk/O21+dsL8wFtmOYgkMG/ILZh/o+//zCIEcIAAADgix+q75LzwayNpiCQwbcglvhhEPtTWgMAAAAEMwIZjAtjqjfsBaFHDAAAANoZ+TCU/QdNQSDD8mFMvUHoFQMAAIBeVG/ZnzG/jECGG4OYGqKowtjv0RoAAADQWeX87RChjECGj8LYifnbTloDAAAAhLLgspYmMN0LhDEAAAAYTH3/PPFh5wAIZMHpwzljn6YlAAAAYFIoe4FmIJAFaxhT1RQp4AEAAAAzfXr+e+mf0QzmYQ6ZOWFMdQ23CaXtAQAAYD5VEn8X65SZgx4yc/w9YQwAAAAWob6XvkAzmIMeMoMdOHhww/wfrbQEAAAALOa+UydPnqAZjEUPmfH+niYAAAAA31Oh0ENmIOaOAQAAwOLymUtmLHrIjPUYYQwAAAAWRsVFAlnABzIAAACA76sgkJmARaABAABgZes/LEIHAllgmb+wD9EKAAAAsAG+txLIAtIGmgAAAAB8bwWBjAsbAAAAWM4hmoBARiADAAAAQCADgQwAAAAAgQwAAAAACGQAAAAAAAIZAAAAABDIAAAAAAAEMgAAAACwhVCaIHDkZKTL009/iYYAAAAIUG8dOyZny8poCAIZrCgyKkoeePBBGgIAACBAlZWW0ggBhiGLAAAAAEAgAwAAAAACGQAAAACAQAYAAAAABDIAAAAAAIEMAAAAAAhkAAAAAAACGQAAAAAQyAAAAAAABDIAAAAAIJABAAAAAAhkAAAAAEAgAwAAAAACGU0AAAAAAAQyAAAAACCQAQAAAAAIZAAAAABAIAMAAAAAEMgAAAAAgEAGAAAAACCQAQAAAACBDAAAAABAIAMAAAAAAhkAAAAAgEAGAAAAAAQyAAAAACCQAQAAAAAIZAAAAABAIAMAAAAA6C6UJgAAAECwqm7oldExt1ePjYsJl+1FmTQaCGSAFY2MTUt9x6jn58Zul7gmZ7x+7u6NiZ4/c1KjJC8tisYEAMAg//Wzc1LZPeTVY3dmJ8u3n32URgOBDDBT58CENMwHr6ZelzRdGZce55SUjUz4t9Hy7hv+uik6XHJiw2VXTrxkJUZIYU6cbN0QT+Pr5MiPS+Sl4gZTj+HUf36BEwEAAIEMwM0CWOmlISnvcEppz3wQG3frvk+1D3U72e+6dl966Fq5MyteduXGyx0FiQQ0mK6musqWx71t+w6/t9HX2ycDA31cBAa3OwAQyIAgUd4yIv9d0S+n2hyGBDBv9M/MyZudw56bnOnwBLT71ifJvbelyCf2pHPSYLjG5pagDQYqjNn19RPIAIBABlhSz9iMVAy6pcE5LRXVvXK2ecDSx6sC2k+bBz239P9uIpwBAAAQyAB7mZy9Kg1DbjkzMCk9k7PX7k/NTRSxeCBbLpxtOtkmn7w9VX77UJ4kxIRxkgEAAAhkgLU4puak8sqUFF+Z9ISyxWLmg8wdGXFS1jdqu9emhlh+s7zbc/utghR5+vAGKjcCAAAQyABrBLGT3RNS5pha8bExmQkiNgxk11voNTuYHitPfXyd7NuczEUAAABAIAOMpXrB3uoY9yqILcjKiZfE2rUyPDNn+9evqjWe/HmdJ5g9+/jt9JgBAABYxFqaAIEexE50TcjXa4Z9CmMLbs9JDKj2UMHsE98tlf/5Ur1nIWsAAACYix4yBKz6Ibe81T0hDvfsqreRuiFFpH0o4NpGDWN879sO+dKdufI/HljHxYJVSUlKCtrXHhUdE9SvHwBAIAOWpXrFXmt1SZ3T/x4gVdxjc3LMfLgbC7h2UpUZ/+lMhxyrG5C/eaSQhabhswMHDwbtay8oKPDcAADwF0MWEVBUr5ganqhFGFuQmp0Q0G1WNjIhn/1xlRx5k0VuAQAACGTAKnzQKzYmL7W5blrG3q9AlhUniaGB/1ZRZfJ/+9ul0jkwwQUFAABAIAO80zM2I0fqnasq2uGNsLAQ2ZgeFxRtqXrLfuf75fLfpf1cWAAAAAQy4NYqBqbk+aZRvwp3eCNNFfcIEmpu2R8fuyT/9kojFxgAAACBDLi5Yx3j8krnmOZDFG8mITFSNsZHBlX7/qCuT/7ihzWUxwcAACCQAR9RAexo06icuTJp6H5zA7y4x8282Tksz/ygilAGAABAIAM+CGPPX3RqWkXRWyl5iUHZ5mpe2SPfPi+1bU4uQAAAAI2xDhlsF8Z6JmdN2b8q7rE3J0HOdY0EXdureWXPHK2RI09sY70yAIBlFJd2yF9//7jXjz/1n1+g0UAgA+wYxhbEZSWIBGEgI5Thpl9sTp6kEXSSk5ur+cLT5eVlMuoctU0bBPPC4wAIZABhbBkp6bGSExkmXZPLD5k8OP8YZVfOR6ElNjJUCrM/uL+x2yWuyZlrv2u6Mi6uqRk52e8ilMFWBh0OGkEnyclJmm9ThTHOWeD446+9LpXdQ1499sn9RfLM5/fRaACBDLB3GFuQm5MoXc0D18JXQWqM7F6fIEXr4iQvLWrF5+/bnLzs71TxjPqOUSlvGZaKLqclQxqhDAAAgEAGwpgpIkPWyH1bUuXztyXJ3qIkSYgJ03T7ansqsF0f2krqh+RU/aCcanNI07jbUqHsJ1/c7VUIBQAAAIEMNvNaq8syYWxLfJjsTI6Qzcnhhu97IaD95fzPqtLhy2e65L12hycUmR3K/uponRz5/R2aB1MAAAACGWBqGBszpbT99VRv2P7USNmZGiFJEdZYIUINEfyH+dufj03LexX98tzZLlN7zVRJ/L/8Sa189w92cdECAACsAuuQwXIqBqakzDFlahC7PyNK/nxbohzKibJMGLue6pF67J4c+eWf75V/uS9fNkWHm3Ysap7b/3ypngsXAABgFeghg6X0jM3IK51jpgUx1SO2LzPS87NdqGCmbq+932Vaj9lPmwdl9/z+1XEAAACAQAYbUkU8jraaE8bUHLHfyIuxZG+YL8Hsvl3p8uKJTvlmebfh+//6r9ulMCeOyotBpLBgI42gk7S0DM23qdY206OcPoLXq8dq5Xhps1ePXZ+ZKF95+oDmxzA1NSNZsZGcDBDIAC2oIh4Ot7FFPFRP2OPzQcyMYh16UEMZn/nkRjmwNVX+6Y1Gzxwvo6giH2qfL/7xHi7mILFt+w4awUa0Xmga6B0c9XotNL1ERIRKj2uSkwFbYw4ZLEHNGzO6iIfqFVPzxAIljF1P9VKpYPT7WzIM3a8KgP/2SiMXNAAAAIEMduGYmpP/r3vc0H0+nB0tT2yKs9VcsdX4y88Uyguf3SLpoca91X9Q1+dZOw0AAAArY8giTPda25hn/pgRVAB7aj6IZcVof+mPOCeltrFfKuu7ZWzSLe29w577lxvOsSklTmIiwiQtIVrSkmJl5+Zs2VqYLgnx2o6FV2uY/SR1t2fNMKOGMH7tWJP8cvNeLm4AAAACGaysfsgtrWPGDFXMigyRJwriNC3cUd3QK786fUnq2gekaXDUp+dee/yHge2l4oYPjjM2Uu68LVt23JYlDx4o1OQ489KiPAs4qzXDVJl6valKj0febPHMZ7MDFYYBAAAIZAgqqlfsrW5jemxUGHvq9nhNhih2dA3Ly8eq5Pylbl0mEqttvl7W4rn9x8/Pyr5NmfL4J7bJ9qJMv7arCn6oBZzVmmGqTL3eVKXHT+3N8oRBq9u/Z53nBgAAQCBD0CjpnTSkqqJWYay4tENeOlZhaEUp1/SMvFN/2XNTQxwf2V8kjz+81a9t/sOTm0UMCmVfe/WiJwQCAACAQAYLUYU8jvfp3zumRRgzI4jdjBri+I03zsvR96rli5/a49dwRqNCmRoeqQp8qHlsAAANv8CFrPV6/a3pmVkaDCCQAYu+qHdbP4ypIh3f/OFpT++UlaghjV87+r68capevvrUAVmXk7jqUOb6YY282Tms6/E+/+sOAlmAqqmuohGgi6joGNZNW8HM7JzXw+bDQkNoMIBABnxE9Y6VOaZ03YcKYaqAx2rD2NunGj3zt9SQQatSPXaf/6fX5Mn9RfLM5/etaht/95u3S88PqnStvqh6yV57v0seuyeHiz/ANDa30AjQRUpSEoEMAIEM0O0LugG9Y6q0/WqqKVq1V+xWVHXGurb+VfWWqUIfqvriI98+L/0zc7od43NnrR3I1LBUtVyBmVYbqgEAAIEM8JoRvWOfyYtZ1TpjqoT9N37yvs/l661A9Zb94b/9Uv71mcM+V2P0hLIntslnf6zf8DNVBt/Kc8lUGFtYdoBABgAAjLSWJoCR9O4d2xIfJrvSIlYVxv7qyDu2DGML1PDKP/rWW/LqsVqfn7t1Q7z86W591+JSc8kAAABwI3rIYBi17lid063b9pPCQ+Sx/Fifn2eH+WK+UJUYFV/L46tFnCu6nLotHK22W9vm9IQ/q/nkfUUsDg0gqKgh+rWN/V4/fmthuiTER9JwAIEMdlY+MOUJZXr5dF6Mz0U8VBhTFQsDzWpD2bOP3y713y/XbT7Zy2e65B8sGMjU3LvVVqsEADtSYeyvv3/c68f/yxfvl/171tFwgA4YsgjDlFzRb+7YHUkRsjHBt39fUMMUVc9YoFKhzNfhi3lpUfKlO3N1O6b32h0yMjbNmwEAAOBD9JDBED1jM+Jw67MwpeoVe2hdtM9hTM0ZC5RhircKZRnpcT79q+b/eGCd/LSy11OIQ2uq5+29in7LVVykyuLqqNLkgB7i4uNoBAAEMkBLZ/v16x3bnxrp01BFNW5eVVMM9DC24Gs/OiX/GuNb9cVnH94kX/h5nS7H83JZr+UCGVUWV+fAwYN8uAEAQCCDHehVzEMV8jiUE+XTc/75u+/Zupqir1TwVAH0B//4Wa+fo8rTH0yP1aXAh1qEunNgwjM8EgCC0ZEfl/j0j0Cn/vMLNBpAIANWr37IrVsxj/syfKv4pIp4nGntC7pzoALo/37ulHzl6QNeP+epj6+Tkzr1kp2oGvAMjbQK1TvFOmAAAMAMFPWA7i6O6FPEQfWO+bLmmBqqGMhFPFbyelmLZ66UtxZ6yfRwrG6ANwYAAACBDEZoHdNnrtbupHCfHq+GKgbLvLHlPPfaeZ8er3rJ9KCGLVJtEQAAgCGL0Jme1RX3ZXo/XFH1DAXjUMXF1NDFH71SLr/7md3etfHmZNkUHa5LxUUrVVukyiIAACCQISC1jerTI6XWHfOlsuJLxyo4GR86erJWPn14syTEexdof2tnpvzTmQ7Nj6O8w2mZQEaVRQAAYBaGLEJX7S59hqXtSPZ+7pin96N7iJPxITVs88XXvQ+oj+7L0uU4SntGORkAACDo0UMGXbXoMH9MFfPYmOD9pUvv2FInqtrkGfGuRyYhJkw+mZcob3YOa3oMahikVcrfU2URAAAQyBBw1PwxPcrdF8WHef3Yjq5hesdudm5ck/LqsVp5/OGtXj3+45uSNA9kSkPHKOuRAUAQO/B/veD1Y5/cX8Q/niEgMWQRuukb16eYx+0J3ldXfPlYFSdiGcdLm71+7H270nU5hqZeFycCAAAENXrIoJth95wu2/VluOLx6g5OxDJUz6HqQVyXk7jiY9WwxTsSojzl6rVU0eW0RFtQZREAABDIEHBaXdrPH8uP8X644tunGoN+3bGVnDjb6nUJ/F058ZoHsvqhcWuEU6osrtqQwyE1VfbriY6Lj5Pdu+/wezvl5WUy6qRAjS8OHDxIIwAAgQxGGJ7WvocsP9b7S7bqUg8nYQXn6zq9DmS71yeI1Gm7llv/zBwnweamp9wyOB/KgpUKY8H8+gEABDJYmB4LQq+L9b6HrK59gJOwAjVsccQ56dWaZHuLkkSOaX8MJfVDngWozUSVRQAAYBaKekAXPWP6DBXMjg3x6nEqZDQNMozIG7WN/V49Ts0jSw/V/iNjdJxhpQBgR2OTbq8fO+Hmsx4gkMFQEzp87kaGrPHctAwZEJ+KWWxOjtZ8/1RaBAB7ion0vupxVDiDsgACGQzl1GG4Ylak9x/mZlfMs5O2Hu/nvxSkxtBgAAAABDJYnR4l75PCvb9cfQkZwW7A6X2lw7iIEM333+uc4iQAAAACGWB1iT4EsvGpaRrMS77MtduUGat9IBslkAEAgODFgF4EpH7nOI2gg7hoPjJwo5jYGCks2Gi7446K1mb4bU5uriQnJ3EhAAAIZLCWXh2qevjSQ9bjmuQk+KC4tEP271ln+H7j166RiFl6M+0sNjZWtm3fEbSvv6CggIsAAEAgg/VMaF/TQ+LDQ2hYm1BBK/PDJeOuTk1KmMzJ2MSUjI59UFExdNo9/4sP5hlenUumwQAAAIEMAFaSkxolt0Ws8SpoDfOBAwAAQCADoJ28tCgZbm3kgwQAAEAjVFkE4LXqhl4aAQAAgECGYDQ1O0cjmGx0zE0jAAAAEMhgdfmx2g9i69OjUgg8tham0wgAAAAEMkAbO7Op3OeLhPhIGgEAAIBABixvYvYqjaCDrFjvw1hT+yANBgAAoCGKo0EXESFrNN9mrw9DFrdsSJfK7iFOhBfS46O9fuzY+JTm+1+fmchJsLEhh0NqqqpoCJ3k5OZqvvh0eXmZjDpHbdMGBw4e5EIAQCADfJURpf2lNTztfVGPzJQ4ToIP4dVbbT0OzfcfExnOSbCx6Sm3DDocNIROkpOTNN+mCmOcMwCwDoYswjYcbu97yDblp9BgXipY531bDTjHNd8/4RkAABDIAI1tTNCn87VlZMarx20vypTYMDqAvVFUkOb1Y5sGtR/mlJFOIAMAAAQywBb6Jma8fuy+TZk02ApUQY91Od7N4Sou7dDlGHIz4zkRAACAQAZoLT8mTIdA5v2wxe2bsjgJK7jztmyvH6tXhUVvAyEAAACBDPBBUrj2l1frmPc9ZPffU8BJWMFv3Hub14+tbe7VfP+sFwcAAAhkgE4yokI036Yq7NHjZShTix3fnZ/BiViGGq6o5tp560xrn+bHkJYQzYkAAABBjaoH0DGQ6XN5tY3OSFaMd9t+4K5NugSJQHBoxwavH/v2qUZdjmFDDtUw7S4mNkYKCzbSEDpJS9P+H5XU2mZ6lNMHABDIYDF6VVqsGJqSuzMjvXrsgwcK5fu/LJUe1yQnZJHffnSX148tqWzX5Rh2b2Gen93FxsbKtu07aAgb0XqhaQCAfxiyCF3pUdijZ3JWHFPeLxL9xH3bORGLHN6c6xnS6XUga+rV5Th8GTIJAABAIAN8lKnDPDKl8sqU1499/OGtnvlS+MgXPvMxrx/76rFacU3PaH4MFPQAAAAgkEFntyeE67Ldcofbp8fTS/YR1TvmS6n546XNuhzHnVvyOBkAACDoMYcMutJrHpmqtlgxMCW70iK8erzqJXujuEGaBkeD+nzEhoXKn/7evV4/vqNrWCq7h3Q5FivNH1Ov83Kv09Rj2L9nHR8YAAAQyADtbYkPkzrntObbLR9yex3IlKcfu1P++vvHg/pcPHFwq09zx1545YIux+FryX29vfleg7w0H9jNdGrPF/iwAAAgCDFkEbor0mnYYuvYtLSMeD+3SfVAPHpH8JbnVnO2fvczu71+vOo1eqf+si7Hcudt2bwxAAAACGQwJJAlh+u27ZO9Ez49/kuf2yubUuKC7hyooYpffeqAT8/Rq3dM+Y17b+ONAQAAIAxZhAEiQ9boNmxxoZfM27lqarjel3/nHvmrI+/oUjnQqv7ss3f5VMhDz94xqw1XhH9cLpe0tbbQENCFWhg7IzODhgBAIAP8pYYt6hHIlF90jsmXExK8frwKA196aLd8443zQdH2apimWiDbF9958Yxux8NwxcAy5hqTxmYCGfRDIAMQ6BiyCEOo4huqp0wPquLimd5Jn56jqi4+fXhnwLe7KnH/lad9G6pYXNohZ1r7dDumzz28gzcEAAAAgQxG250Uodu23+ubEMfUnE/PUQUuVGAJVKqIx9/98WGfnjPinJRv/rRY12PyZegkAAAAgQzQyL6MSN22PTl7VV5rG/P5eSqwBGIoU8Hna3/yoM/P+97L56THNanbcd2/p4A3AgAAAIEMZkiKWCv5MWG6bV8V+PB16OJCKHtyf1HAtLMKmN9+9lGf1htT1FDF18v0mwukinmooaIAAAAgkMEkBzOjdN3+se5x6RnzvXriM5/fJ19+5E7bt68q4OHrMEVFDVX82o9O6Xpsh3Zs4A0AAABAIIOZVHl6PXvJlKOtY54hjL5SvTff+ZOHPD05dqPWGVOB0tcCHgvOnDktO7LCdD2+3350F28AAACARSh7D8OpXrLW5mndtq+qLr7U5JKnbvd9AWhVEv+/nn1M/vm77+laaVBLar6YWvR5tcUyzp07JxMTLrmrKEI2r4+SV84N+1wgZSWP3LnJ5yGUsIeY2BgpLNhIQ0AXah0yACCQARpb6CVTc770orb9WuuYPJYf4/NzVXD4168+LG+fapTv/7JU1yIX/lC9Tk8c3OqpFrlazc3N0tXdfe3v8VFz8tShRDlVPS4Xuic1O056xwJXbGysbNvOUgYAABDIYCt695IpZY4pz5+rCWWKWkz5rl158uLrFfLG+SZxTc9Ypv1U4Y4vfOZjfpWQV2Gsqrp6yf1Xr87Jx7dFSlFelPzswvCqhn9ej94xAAAAAhksxoheMi1CmQoSquCH6uFRJeGPV3eYGsy0CGK3CmPXS0u4Kn/4QKIcrxiXqv6pVe1HzcdT7QcAAAACGSzmsQ0x8o3aYd33428oWwhmqmDGl5yT8ot36uXNkouGDWVUoUZVKPzkfUWaLKrsTRhbsEauygO7ouS2gSj5ZdWIz71lX/zUHi50AAAAAhmsSK1Ldn9GlBzvm7BFKFsIZmrOlrpVN/TKr05fkvOXujUPZyqEbc1LlX0713uGTmrFlzB2vbw0kT+4P1lePzcibSPe9RCqYiNaHjsABAr1D2w7N2f7tY0/+M29Mjrm9uqxuZnxS+7bWpgu//LF+73en3q8P68jLib8pvf7cgxavA5/23K51wEQyGBb+zIjpdzh9lRGNCKUOdxz8uSmWIkMWeP39lRFRnVTOrqGpbSqS5q7BqW9d1iaB5w+DW1U4SUtIVq2b8qSTfkp17arJVVN8foCHr4KWTMrj98VKy09V+UX1SO3fKwq5KEqPwIAllKjHfwd8eDv/yfUPzDu37PO9Nfh7zFo8Tr0+H8uQCCDbahg9Om8GHmh2WnI/tSctecvOuWx9TGSFaPd5b/c/5RUL9qt/tXN3/+JeMPtnpaSM8Uy6HBosr2NWWvkj9JT5OdnhqV3/OZBWlV/1GJ4JQAAAIEM0Jkq8HF3aqScuWLMnKyeyVl5vmlU/o/saNmVFqHrvsz+V7e+3j45f+GcTM9o2wMZHjIrT94bJ7VtM/L2JdcNv1O9ff6U4gcAAAgma2kCWMF9OVGSFRli2P5UcYpXOsfk6Hww87esu1XVVFdJcckZzcPY9bZuCJUvfjzZMx9QYagiAACAb+ghgyWooYtqGOGRi05D91vnnJaWmmFDesuMonrFyivKZGJyypD9LSwmXVI/IXft3MZQRQAAAAIZ7EjN6Xp4Phgd6x43dL8LvWXlQ255KDdK07llRnK5XFJXV+dX4Y7VUotJf+b+fNm7dysXMgAAAIEMdnV3ZqT0TcxeK1NvJFXw48jFabkjKUIOZkddG4Zndapox6WL9dLW3q7r8MRbiYuNlV27mDcGAABAIIPtPbQuWnomZjzFN8ygwqC6qWB2V3qEZXvMVI9YY+Ml6erqMi2IKWGhIbJv3z4JDw/j4gUAACCQwe7UfLKnbo+Xr9cMm1pwYyGY5ceEye7kcCmav2mxfpm/Ojs7pbOjQ/oGBkw/FhXG9t9zr8TGxnLhAgAAEMgQUKFsU5ynPL3ZVRDVUEZ1i+wely3x4XJ7Qphsng9nRlKFOrp7uqSvr8+wYh3e2Lx5iyQnJXHBAgAAEMgQaNRQQauEMkUdw0KvmbSJp+csPzZUCtaMSF62tuuNDTkc0j8fvoYGB+d/HjJ1SOJydmzfLgUFBVyoAAAABDIEcihTJelVFUSrUb1mA8MOcfSUyQX5oLBFdFSUxMfHSVR0jMTGfDCMLyY2ZsmQPlWIwzE09MHP024Zmd/O+MSkTE5MyOB8GLM6whgAAACBDEFiYX0wK4aynKmP5nGNulyemxXmdhHGANjNm6+/LgPzn5/R0dGyIT/fc192To7k5uXROAAIZACh7Obi3E6ZDaLzQBgDoJeSs2el/fLlm/4uPTVNsjMzJDc3V7Zt3yFbtrHmIQACGWBKKMuIDrHMnLLQuRmZdY0QxgBAZ/1XBjy3ipoa+eVbb0lEeLhsvu02ueOOO+TQAw/QQAAIZIBRrFToI3FyKCjaXJW2V9UUAzmMffK+Itm5OZs3GGATU263J5yp20+OHvWEs8898QTDGwEQyACjQtkzRQlytHnUtMWjlcxZZ1CEMbXOWKCXtl+Xk+i5AbBxOHv2WVmfmyuPPPKI7N23j4YBYBtraQLYUVLEWs/i0Vviw0w7hsjxwYBuY1U18tCh+1hnDIBtqDlo/8+RI/K3f/M3cq6khAYBQCADdA1EIWvkiU1x8nB2tPH7np2U2ampgG3bnOxsOXDg4JJy/QBgp2D29X//d3GOOGkQAAQyQE93Z0bKFwriJSk8xLB9pkwF5vwxNURRFe/Yu3evhIeHcXEBsDU1lPEvvvIXcuLdd2kMAAQyQE8bE0Llmc3GDWHMcDsCrg0XhihSSRFAIFFzzH7wox/JP/+v/0VvGQBLoqgHAsbCEMb6Ibe82jmmaxXGNePDcjWA2q6wYKNnbZ9g9eqxWjle2mzqMXz72Ud5EwM6amhulr/5m/9bnvnDZ1jHDACBDNDT5uRwyU8Ik7c6xqXMof08r9hpl8zNBMZy0ClJSXLHnj1BP1esd3BUKruHePMAAW5kdFS+8c3/kN954gnWLwNAIAP0pHrLHsuPkR3JEXKyd0Jax6Y123bO1IDt2ycqMkK2bt0meazZ45GZEic7s5NpCCAILAxhHBsbk08+Ss80AAIZoCs1t2xjQpxUDEzJe32T4nD737MV53aKXfvHVNGODevXy223b6Zox3Uef3ir5wYgePz05z/3/EkoA0AgAwywKy3Cc/M3mIXOzcisa4QgBgDLKC7tkKb2QekfGpX23mHPfc0DTnFNz3h+Vr3RzJkEAAIZCGarCmaJk/aaZ0QQQ6Dr6+2T4pIz1/6e8uFC5nHxcfPXf6ikpWVIUnIy17+Oqht65fSFNjl/sUuaBkdtc9y/9dnP0jsGgEAGmB3MWkZm5NzAhNQ5vZtjljlrj5LJqoR9fn4+Jey9RJXFwDHocNzwZ2Nzi+dPNW8yOTlFUlJSJC9vHQFNgxD2q9OX5PylbulxTdru+AljAAhkgEUszDFzTM1J5ZUpKXe4b9lrFjk+aNn5Y6o3LCcnR9ZvyJfkD3sJ4B2qLAa+ickp6eru9tyqqqslIy1NMjIzCWc+WvjHCzu/XwhjAAhkgAUlRayVQzlRnlvP2IxUDLqlwTl9QziLnJ2U2akpSx23CmHp6RmSlZVFxUQ/UGUx+PQNDHhu9fV1nvfQli1bgn75h5WC2NH3qm3ZG0YYA0AgA2wmKybUc3t4/mfVc9bgcEu7a1rG+3oscXxqjkxycpJk5+bRE6YRqixagxoGNzrmlsr6bs/fxybd14pCrM9MlK88fUDzfU7PzF7rOcvJziaYLaIKdDz32nlbzQ0jjAEgkAEBRPWc3Z0ZKXdLpMimrTLkyJb+vj5xOp0yOTFxbZ6KXtRcsOioKImPj/MUJ8jIzOCkICB0dA1LaVWXVDf1SFv/iCW+8F8fzHbt2h3UQxlHnJPyz999T8609gXE6yGMASCQAQFC9Ugt7pVyuVwy5hoTx7BDZqbdMj4x6QlrC5yjTs+/wi+Wct12QkNDPaFLUcErLCKc3i8EnIVCEHXtA5bucVGhrL+/TzZtKpSioqKgO09vn2qU//j52Wtl6gljAEAgAyxNDW9SN3qv7OvIj0vkpeIGU4/h1H9+ISDbVvW0/OKdejlR3mKrYW/qH1HqGxo8PeJ37NkTNMMY//dzp+T1spaAeT2EMQAEMgBAUFJDEl8+ViXHqzts3dOihiWfOPGe7Ny5K6AL56jg/Oy33g6oaqOEMQAEMgCwCaosavvF/nsvnwuoXhbVW3ahtFSuXBmQ3bvvCLhzpoaSfuMn7wdE4Q5vw5jbPS2nTp2U7du2M7oBAIEMAMxGlUVt/OiVcjl6sjZg5h4t1tbeIdPzry2QCn6oMPZXR94JqHPmbRgbdbnk/IVzsv+ee5mzC8BUa2kCAIC/X+p//29/Ls+9UxmwYWyBKvihvsyrL/WEMev51EMPeR3GFNX7Wfz+aU9xJgAgkAEAbEf1iv3Rt94KqOFuK1Ff5u0eytQcv0ALY7u2bZPPPfmk12FsgQplJSUlARGyAdgTQxYBBD2qLPou0NapWm0oO3DgoO2GL6pz9/f/77sBF8b+/Ktf9TmMXX8+KyrKZe/evXwgAjAcPWQAAJ+ooW5f/vc3gzaMLf4SbzeqmmIg9Wj6G8YWqOGonZ2dvMEBGI4eMgBBb+fmbBrBhzAWaEPd/KG+xNdUV8m27TtscbyqNziQSttrFcYWVFZWSEZGZsAUbQFAIAMAW9i/Z53nBsLYajQ2t0hCYpLl1ykrLu0wfWiulcOY4lni4LyqvHgPFzYAwzBkEQBAGPOT6lmxclEINW/smz8tJox5oW9gQPp6+7ioARDIAACEMbvwVOo7Y93Aoxbr7nFNEsa8VF5RxkUNgEAGADCf6ln52g9OEMa8MOhwWLIohArUr5e1EMZ8MDE5Jc3NzVzUAAhkAABzqYp8gdKzYgQrDl38r5+dI4ytQmPjJS5oAAQyAIB5Aq0inxHU0MVLF+stczyqkEcgnEOjw5iieskogw+AQAYAMO2LfCBV5DNSW3u7ZXrJXjpWQRjzQ2tLCxc0AAIZAMB4gVSRz2hW6SULhN4xM8OYouYFunTaNgAQyAAAN6WGKjJvzD9W6CX7xfFawpgGmEsGgEAGADCMqqr4xvkmGsJPqpess7PDtP13dA3LmVb7rqVllTCm9PWxJhkAAhkAwCDf/OFpStxrpLW11bR9nzjbatt2s1IYU1RxjyGHgwsaAIEMAKAv1avyTv1lGkIjKjCYNf/ozZKLARnGlAvnzxkWxhb000sGgEAGAND9S/x7VFXU2uXLxgdcFaztOAdw3113rRjGzp07J30DA4Yf29DgIBczAAIZAEBfzB3Tnhk9K3YdrvjJRx9dMYx1dXebcmxDDtbjA0AgAwDo6NVjtcwd04Eqm250tcXa5t6Aa0czw5iiirQwjwwAgQwAoJuSmg4aQSeOIWN7V6ovB9bwOrPD2IIx1iMDQCADAOhBlbq3c4l0qxsYMK5tqxt6A6qn0yphzPM+GaaHDACBDACgg7MVnTSCjpzOUcP21dQaOL1jVgpjyvgEi6UDIJABAHRQdamHRtDRzIxxPVa9g6MB0WZWC2PK5MQEFzMAAhkAQHt17QM0go4GDSwG0dZj/2F1VgxjAEAgAwDopilAelUgMj41bevjt3IYc446ucAA6CKUJgCA4FVcSnVFI7hcLomNjdV9P/3OccKYTlTpez2ocvo1VVW2O19x8XGye/cdvLkBAhkAwK+gMDZFIxhgzDVmSCDrcdmz8ERNdVXQDlOcnnIbOqwVgPUwZBEAglhzxyCNANNFRcfQCAAIZAAAAGbIy1snYaEhNAQAAhkAILiMTbptffxhEeGcRJtpHlhaHCM8PEzS0zMsfdxRkRGcPAAEMgCAttp7h219/MlJSbJ/390SZ8D8LIKjNlzTM/Lqsdol969ft97Sxx0dFc3JA0AgAwBgsYzMDDl8+LBsLiqy7LA3FRzxkeOlzTc9j/RCASCQAQBgU0XzgezQofskIy0taNsgKzbSFsdZ2T0kHV1Le2c3bMi37DGrMu8AoAfK3gNAENuyId3z5djqZq569zhVWn7/PfdIZ2en1NbWyMSk+WX9jRxOmR4fbZvS9y8fq5KvPH3ghvtyc3OlvqHBkscbFqrPV6aY2BgpLNhou88OKmMCBDIAQJDIy0iSiI9tlddax+ShddESGbJm5efk5UlGRqZculgvjc0tph5/dFQUJ/Emzl/qvmmgVj2cfQMDljvetDR9io6o17xt+w4uCCCIMWQRAGBJkWGhsnX/dil45OMSPx/KyhxT8vWaYakf8q4ypKrcp77oHjx4UFJMnMMVb+BQN9XjaReqJ+/tU41Lw/S6dZY83qTkZN6UAAhkAABtFaxLseRx5W/Mkj2/dVjSttw4p2hy9qq81OaSo02jnp+9oQpqHJgPZTu2bzel6EdConFhMDPFXvOc3j3btDSQ5eVZrjiLKjaiAj4AEMgAAJqKjbFWVbv0xFjZ9eA+WX//nRIWuXyp+DrntE+9ZZ7wWVAgDz74kORkZxv6mtTQSaNsyk+x1fV3prVPRpxL57zl5ORY6jiTk1P4sABAIAMAaG//HmsMD1PDE2/fUyRbfvN+SVzn3bC763vLHFNzXj1H9XLs3bvXs3aZESXWVUEPI3tWthdl2u4a/MU79UvuW2+xaospKQQyAAQyAIBONpk8zC0v/4PhiVm7b1vV81Vv2ZGGETnT6311QbXm1UMPPeypbqfn8LjMDOPndO3MttdcpzdLLi65Tw0ztdJi33l56/igAEAgAwDoY0N6gin7Tf1weGLBA7cenugN1Vt2rHtcnr/ofW+Zoop+qLXL9Cr6kZ2bZ3i73rklz1bXnyruUVzaseT+/Hxr9JKpqo/MHwNAIAMA6Gb7pixD97cwPHGbD8MTvdU65ntvmSo7rop+fGzPHk2HMaptJZtQ3XH3lizbXYPvFF9acp9VeqUyMjP5kABAIAMA6Of+ewoM25e/wxO9sdreMlXd7/77D8uG9doEgQ0mzYNS88iyYiNtdQ2WNPUuKe6heqWMLsCymBrOynBFAHpjYWgACHIJ8ZGeeWRNg6O67SM5IVbW3bVN8x6xW1G9Zd+oHZb7M6LkUI53izOrELB79x2eohI1VVUy6HCs+ov8xo0Fpp3TO2/LltfLWmxzDbqmZ+T4+83y+MNbb7h//br10tXdbdpxpadn6D5ccWj+GlPXGvSRk5vrqbAKEMiAD13u6pZ0xuMDlnNo90ZpeqdS8+2q4Yk5OzZJno49Yis53jch9SNueWx9jGTFePe/vYW1yxoaGqSpqVGmZ2Yt90X+Vj738A5bBTLljeKGJYFMFV9RQz8nJqdMOaYtW7bovo/pKfeqgz+8eC8nJ9EIsDyGLMJQZeWV0tjYREMAVgtkd2k/vG5heKKZYWxBz+SsHLnolBNdEz49r6ioyLN2mSrsYLUv8reyLifRdtUWVQ9tdUPvkvtzTVqTTA2XjLVQpUcABDIAQABTX+Dvzs/QZFtqeKJW1RO1pnrLjtSNSM/YjNfPUT1d+++5x+u1y9QcNCt8kX/kwGbbXYe/Or20uMeG/I2mHIvZoRoAgQwAEGQeuGuTX89XwxML9hTJjv/zfkPnivlqobfsWMe4pwCIt65fu2w5au7Y1q3bLfE6HzxQaLviHserl5a/V+HW1x5Kf9E7BoBABgCw1Rf47A3WGZ7orTNXJuVIvVNaRmZ8ep5au+wThw/fdO2yTZsKLTVH9on7ttvqGlTFPV49VnuTMGxc6XkVqnft2s0HAgACGQDA+l/gF4Yn3nbYesMTveFwz8oLzb73ll2/dpn6Aq+ogKbmnFmJKpKhKmjayfHS5iX3qSp5C+2sN6uFagAEMgBAEFFf4L3pJYuwyfBEb622t0ytXaaKfqh5Y3fMhzMrevqxO211Liq7h6Sja3jJ/apypd6sGKoBBD7K3gMAbqB6yb7xxvllf6+GJ+bfu9OWPWK3stBbtiU+TB7Lj5XIkDVePW9h7TKr2r9nnRwuzpV36i/b5ly8+V6DPPP5fTfct6mwUNc1yVQPnBmhOik52VMwBvqIiY2hEUAgAwDYi+olO/petfS4Jm+434zFnc1Q55yWlppheTwvRjYnB0bo/NPfu1dK/vZnnjladnCiqk2ekRsDmVobLi42VkZdLl32uXPnLlMKeahArwrGAAheDFkEACz9Av9b+6/9HGjDE72h5pO91OaSo02jPs0ts6qE+Ej5s8/eZZvjVf8Y8PapxiX35+bm6rI/NeRUDT8FAAIZAMAS1DA3tS5ZZk6afMxm1RO1pHrLvl4zLPVDbtu/FlVF89E7NtrmeEsq25fct3Fjgeb7USXurTzkFACBDAAQpP71qw/Lrk/tD7i5Yr5SPWRTAdBLpnzl6QO2qbqo5ryNOG8cNquG96kApRU1BJIS9wAIZAAAy3pqU1zQt8EdSRGyKy0iYF7PN776SdssGP2Ld+qX3JeVlaVZGDtw4CAl7gEQyAAA1pUVEyqfyQveKmVZkSHy0LrogHpNaj7Zs79/SGLDrF/X682Si0vuU3O9oiL9C8iEMQAEMgAwyYl336URfKR6h1QvUTCGsaduj/e6/L2dbC/KlH995rDlQ5kq7lHd0Lvk/oyM1VclVEMeCWMACGQAYFIYK37/fRpiFR7LjwmqUBbIYcxuoezV/65Zcl9h4eqKzKhqinv37iWMASCQAYAZ6uvrpbWzk4YglAV9GLNTKCtp6l1S3EOtF5aSlOT1NtSizx/bs4dqigAIZABgprqGBplyu6WuppbGIJTdVH5MWNCEsetD2Uv/+JuWrb6oFrM+/n7zkvtzvFyTTAW3Q4fuY50xAAQyADDT5c5OGRkd9fx87mwJDeJnKHs4OzrgXtfdqZHzYSwuqMLYAlXoQ1VfPLw515LH90Zxw5L78vLWeXq+lqN+t7moSA4cPOjpUQMAAhkAmKiyvPzazzV19TSIv+ElM1K+UBAYPUnqNTy5IVYeXhcd1OdUhbK/++PD8uVH7rTcEMamwVHp6Bq+4T41Dyw9/ebFPVThjgcffEiK5gMZAFhdKE0As1y9elUcwyMyNztHY0B3F0rLrv3cf2VAWlvbJC4u3rLHGx0dOX+zdkDYmBAqzxQlyGttY9I6Nm3L60INUXxyU2xQ9oot5/GHt8qeHTny78+fksruIcsc18vHqjwLW19vU2GhdHV33xDEtmzZQo8YAFuhhwymmZ2dJYzBMJe7Lt/w99Lz5yx9vO7pGVu0a1LEWs8wPzWE0U6hZqFXLFiHKK5kXU6ifPvZR+XZJ+6xzCLSx6s7ltyXnJTkWVNMBbFPHD7sqaBIGANgN/SQwbyLLzRUUlOTaQjo7lxJiUxN39iD09HezvWnITWEsSgp3Ba9ZfdnRMm++eMliK3swQOFntuRH5fIG+ebPAU2zKL2/fapRs/xXO/wfBADADujhwxAwCu9cGHJffWXLtEwGlvoLVNzy9RQQKtR1SG/vDVRDuVEEcZ89Mzn93kqMar5ZWb2mL17tomTASDg0EMGIOA1t7YtuW+h/P2WbVtpII2puWUbE+KkZWRGTvZOmNpjpoLXlvhwOZgd5QmMWD1V9EPNL1O34tIOeaf4kmeNMKN6ze7Oz5B929ZxIgAQyADATlS5e1XE42ZU+XsCmf7BrGdsRs72T0md0y2Ts1cN2XdSeIjsS42Q3WkR9IbpYP+edZ6booYRllS2S23nFelxTWq2D1XpcXtuiieE3X9PgScQAgCBDABs5vpy94tR/t4YWTGh8lj+/E1ipH7ILRdHpnUJZyqEFcWHya6UcM8+YYyFeWaKKk3f0DwgzR2D0tbjkPGpaWkecK7Yi7Yz+4P5nFs2pEtmSpxsyk/xLFgdKNzuaU+ZfgAgkAEIvkBWUbHs71TPmXPEKfEJ8TSUQTYnh3tuKpypnrO20Rnpm5iVnokZ6Zmc9Wlbqudr43zwWh8bJhviQglhFqCqM6qbSCGN8SGXyyUlJSVy4MBBQhkAAhmA4NPa2XnL35ddOC+HHniAhjKBClCLQ5Rjak4ckx8sh9E3H9KmFvWiZUSFSETIWsmODWEoImyhrq5ORudD2aWL9bJt+w4aBACBDEAQfRGqqfUU77hlICsrI5BZiCq8sVB8Q81BA+ysr7fv2sLVbe3tsiF/I+ukAViCklMAApYq2rGS1vkvSQCgh+qa6ms/T8/MSlVlJY0CgEAGIHh4U7RjZHTU05MGAFpqbm72DFW8Xt/AgKfXDAAIZAACnirWsVy5+yXBrbqKBgOgGVVVsb6+7qa/u77XDAAIZAAC1q9PnvD6sdU1NTQYAE3d+bG9srmo6Ib79u+7W7Zv2+4JbACwgBnTMNXMzIzMzs3RENBcQ0OD149tv3xZBq4MSnx8nGWOPzwsTNasoYogYEeqvH1GZsaS+292HwAQyGAaVf3uyvyXYECXQHbpkk+PP/P+adlz517LHH9EeISkpiZzIgEAIJABen3hDJ//wplCQ0D7MFZXJ1PTvg0Jarx4UX7j4Yet8+EcEsKJBACAQAboH8oArZWXlvr8nLaODq5HAABgOIp6AAg4zS0tPj9Hlb+/3NlJ4wEAAAIZEGwcUxQ20Yoqd6+KdKxG8enTNCAAACCQAcHmtbYxGkEjZRfOr/q5TY2NNCAAACCQAcGkfsgtrWPT0jM2Q2NoEcjKylb93IbmZhoQAAAQyIBgcnHkg2qAFYNuGkMDre3tfj3/xLvv0ogAAIBABgSDydmrUuf8IIg1OKdpED/V1dR6inP4o76+noYEAAAEMiAYNAy5PaFMcbhnKe7hp5rqKv9DXUMDDQkAAAhkQDAoH7pxmGKDg2GL/qiuqfF7G5S/BwAABDIgCKjeMFXM43oVQ1M0zCr5U+5+McrfAwAAAhkQ4G7WG9YzybDF1fKn3P1ilL8HAABGCaUJAHOUXJlaNqjdnRlJA/kayPwod79YK0MWAdjAa+93Sc/wrUdWfGpvluSlRdFYAIEMWOrq1aviGB6Rudng6xFSWWy56WKlV8alMHScC8RHLW1tmm1ryu2WE8ePy7Ydu8z7cA4LlcSEeE4sgGUdqx2Qk/2uWz5m98ZEAhlgcQxZhGlmZ2eDMowplbf4/2f/fFAboQK+T3p6usXpcml7jioraVgAAKA7eshg3sUXGiqpqclB+dqbuxzz/726fChbEy0FqQxb9Nbx//6V5tvsvNwVtNcnAAAwDj1kgMHqr1t7bDlUW/SNHkU4+q8MUP4eAAAQyIBAU+lF2KLaom8ampv1OVfl5TQuAAAgkAGBQvWM1Tm9myDGItHeOfHuu/qF54oKGhgAABDIgEBRPuD9UESGLXqnvr5et21T/h4AABDIgADiS8hSwxZXmmsGkbqGBt22rcrfnyspoZEBAACBDLC7nrEZT8jyRcMQwxZvRRXdGBkd1Tfw1dbS0AAAgEAG2F3FoO/hqmGEQHYrxadP676Pmrp6GhoAABDIALtrcPq+2rMqAMKwxeXpUe5+MVX+3jnipLEBAACBDLArtfaYwz27qucybHF5RhXd+PXJEzQ2AADQRShNAOjv4sj0qp+rhi3uSougERdRxTZU0Q1Dzt/Fi/JJmlze+XW9VNRfpiEMlpoQLQf35tIQy0hMSpSkxAQaAgCBDMDNqSGHZY7Vl7BfGLYYGbKGxrxO6YULhu2r/tIlGnyeCmOvV3TREAYrSI6UTbkhNMQtEMgAEMiAVZqZmZHZubmAfo01QzP+b2NgQrYn83a9XnNrq2H7Uj1xapHooi1bjPtwDgmRkBC+hAMAQCADdPySe+XKoOnHcaa8W+7ena3b9suGwuf/61/vVs3QhGTNMZdsQX9vj/RfuWLoPovff19S0zMMDWQZGemcbABBqbbNKd96u+WWjylIjZG//EwhjQUCGbBaEeHhkpqaYuoxHH+/Rb71ZrVkpCbJ3t3az9EYcV+Vy71jfm+nZXKNxCalSCQdJh6l584avs/mlhZDr9dQescABLHRiRk52e+iIUAgA4wIZWYZcU7KC8cqPD8//8ty+fhdGzXfR93AhGbbanVdpbjHh2qqqgzfp+qRm5qYlPiEeE4AAADQDGXvEbRefL1CelyTnp+bBkflyI9LNN9HuUO7YYYsEn1dODWo3P1ilL8HAAAEMkADHV3D8sb5phvue6m4wXO/VnrGZla99tjNtIzNcOLE2HL3i6ny9wAAAAQywE/fefGMuKaXBpx/f/6UZvs42z+l6TGr0vf1LBItdbW1pu27tb2dNw8AACCQAf4oLu2QM619N/1dZfeQ/OiVcm2Cg1P78OTPAtOBoqau3rR9j4yOSl1NLW8iAABAIANW67nXzt/y90dP1vo9dLFiYMrTo6U1PUKenThHnNJ/ZcDcQFhdxZsIAAAQyIDVePVYraeAx62ooYxqSKM/9CrAEezDFq1QVKO6poY3EgAA0Axl7xE0VJn7773l3XBENaTx7VON8uAB3xecVKGpzqnf0EI1bHFzcnhQnkMrFNVov3zZ01NH+XsAsL5TJ0+u+JgDBw/SUCCQAUb43svnblrIYzn/8fOzcteuPEmIj/RpP+UDU7q+DjVs8TGJCcpzWH/pkiWOo+zCeTn0wAO8qQDA4gYdDhoBlseQRQQFNSfs9bIWn56jwpsKcb6qGNI3kAXrsEVVTMOscvdLAllZGW8qAABAIAO8tdpy9irEqaqM3lJrj/VMzur+eoKx2uK5syWWORbK3wMAAK0wZBEBTwUqVc5+tb7502LZWpju1dDFikFjenCCcdiimeXuF1sof79l29agOgefPrxTdm3O5UPFYLHR4XJ7QSoNsYzIiAgawSKam5ul6/LlWz4mJzdXCgoKaCyAQAYruHr1qjiGR2Rudk7X/Xz9pff9en6Pa1Je+NlZ+Z1Ht68clIaNaTs1bPF8h0Pyo68GxbUyOmp+ufvFSi+cl/TMLP0+nMNCJdFihUMKN6Z7bgBwMxPjYyvO2UpOTqKhgEUYsgjTzM7O6h7GfvJ6tfSP+z+n6+cXWuVS6+AtH9M6vkZGZoxrv+6p4LlW6ixYar6ltY03MQAA8Bs9ZDDv4gsNldTUZN22r8rc/6qyU7PtPfd6lfzgHz+77O9Pt47N/9e4lNQytVY+nZoQFNfKxYZ6yx1Tc1urrtcvAAAIDvSQIWB984enfSpzvxK1oPSPXrn5OmZqCGGZw9guK4d71lNEJBhYtYjGiXff5Y0GAAAIZMBiqpDHO/WXNd/u0ZO1nhL6izWYVIbeqCIiZlLFM1QRDSuqr6/nzQYAAAhkwGIvHavQZbuqx+1mJfTLTQpkDc7AL39fU11l3bDY0MCbDQAAEMiA6716rNavMvcrUdtW+1jgmJqT1jFzglEwDFustmBBjwWq5+5yZydvOgAAQCADPF+QnZNy9L1q3ffzvbfKPfvyBLQr5pY7NGrYots9bXhvlXPEKe2XL1v6mis+fZo3HgAAIJAByouvV3jWDdObGrr4z999z/NzucPceVxGDVu8cP6cNDa3SF9vn2GvrezCectfc02NjbzxAAAAgQxQxTZeKjZuTs+Z1j55u/SyZ9igmYwYttjZ2Sl9Ax8szFxeUebpLTMkkJWVWf66a2hu5s0HAAAIZMB3Xjxj+D5P9U9Y4rXrOWxRha/Kyo+KpExMTnl6y4xg1XL3i50rKeENCAAACGQIXqrMveqxMlpYerLEhq4x/fXrOWxRha/pmRt7AVVvWafOxSysXO5+sdILF3gTAgAAAhmC13OvGT/XKK8wV2bXrBHXzFXTX79ewxabm5uvDVVcTPWa6Tl00crl7pe0U2sbb0IAAEAgQ3D60Svl0jRofE/KbVvzr/0cHWr+W+nisLbhyOVySX193bK/V71meg5dtFOxjP4rA5S/BwAAqxJKE8BMMzMzMjs3t+rnO0en5OjJWsOPOyo6UmZTk679fXxmTiJD1sjkrHm9ZXUjbrk7LUSz7V04f37JUMXFVO9Za2ubZOdka/567FYso6y0VNIyMrT7cA4JkZCQED4kAAAgkAH6mHK75cqVQb+28fyrVZ4S9EZbX7A0gJgZxpTeyVlp6x2S2FD/j6O3u1scIyNePbampkrWzgeH0FDtPk5KDSoaoqXysjLZs/cuTQNZRkY6HxQAABDIAH1EhIdLamrKqp9fe7Ff3q7tMeXYc7cXyM1iYEzoGhkzcU7ZQEicbEgN82sbY2Pj0tPb7fXjZ2bnpLW5Se6+5x7NXkdne4ftrufLPT1+Xc83C2QAYJR/e6VRmq+M3fIxf/LgRtm6IZ7GAghkCLRQtlrP/8KcNariEmJkJjrq5mFmPoyFrV0j03PmhLLqkRm5NyfGr22cPXNmxaGKi6netNaWFikqKtLkdTRcumi7a1n1+FaWlcnefft4YwOwHRXGTva7bvmYpyZmaChABxT1gC29fapRKruHTNl34c7CW/7ezCL4PZOz4pha/Zy8hoYGGXQ4VvXcpqZGTyEQf6niGHYpd78Y5e8BAACBDEHh+78sNW3fSYV5t/y9e+6qqVUXGxyrWyR6aD6I1c8HstVSvWqqsIW/ik+ftu11Sfl7AABAIEPAO/LjEulxTZqy75ScNM/aYytRVRfD15rTV1YxNLWq52kRplTvWoMfoU6xU7n7xSh/DwAACGQIaB1dw/LG+SbT9r91R4HXjzWrtMdqhi2qRZhHNRhu6AlUTY2e3rbVslu5+8Uqy8t5owIAAAIZAtMLr1wwpcy9EhoWKmtzvC9Drgp7xIaa00vmy7BFFZ4am1s027c/QxfPlZTY/hq9ePEib1QAAEAgQ+ApLu2Qd+ovm7b/rA2ZPj/HZVIJfF+GLWoxVHEx1dumet18FQhFMeovXeLNCgAAvEbZe9jGS8cqTN1/0Z1bZHoVz4sMWWP4otELwxaTIm79by7l5WWaDVVcTPW6ZefmSXJSktfPCYSiGKr8fV1NrWzZtjWo3p9u97Q4hoYEK8vIzPD5Oaone3rKTXsBAIEMMMerx2pNK3OvREVHyvT8bTVUGDMjlLU7pyUpLWLZ3/f19kmbzgswq963w4cPe/VYVQxDFcUIBOfOlgRdIFNhrLjkDB9WXnj8scd8fk5NVdWql6QIxvYCADthyCIsb8Q5Kd97y9xCCRu35vv1fKPDmNIwsvy/pqvejPIK/RfW9mXoYiAVw6ipq+eNCwAACGQIDC++XmFaIY8FOds2+r0No9cmq3NOLxsEa2urZWJyypDjUEMXvam6WFlRETDXrOrpc444efMCAAACGexNlbl/qbjB1GNITEsUd0iI39tRa5OFGbw2WcPQ0l4yI4YqLqaG8KleuVtpDbD1u3598gRvYAAAsCLmkME0MzMzMjx8616Ef3nupOnHuW3P7bZt46orY5K7Zuy6Np+WsrJSw49D9cap/W7adNtNf19TVeEphhFIampr5a79967+wzksVBIT4vmgAAAgwNFDBssqr+2Vmr4R048jwoe1x1ai1iaLDjGul6xpQmRq7qNhi81NjaYFn57eXhkaGrzp7yorKwPu+m2y+QLXAADAGPSQwbyLLzRUUlOTl/39c2++bfox5hXmyuwabQPU+OxVz9DF6TljCn0MrImVXakR0umpYnjF1PZsaWmSDRs2SHh42A33d17uCrjre2p6Wvp7e4Km2qIqTU41PP0cOHiQRgCAAEUPGSzpR6+US49r0vTjuM3P6opWoKotqvlblZXmF81QQxdVQZHrqeIXgVLufrHVLI4NAACCCz1ksBxV5v7oyVrTj0OtPTabmqTLtj1DF0PXegp96E1VW8w9VyXTM7OWOL+qoEhqaprk5eV5/h7IxS+qa2rkc7ylAdyC+ocbVY32VgoLNsq27TtoLCBA0UMGy/nmD0+bXuZeWV+Yq+v2jQhjSvjaNdLittZbXfXWLVRdvHjxYsBey+2XL1P+HgAAEMhgH9UNvfJO/WVLHEve1o267yPSgAIfaqbaREKOpc6z6q27cP6c5+f6S5cC+pouu3CeNzYAACCQwR7+62fnLHEccQkxMh0dqft+1MLNsaH6hbKY0A+Kh3StibXcue4bGJDTp04FXLn7JYGsrIw3NgAAWBZzyGAZb59qlMruIUscS+HOQsP25ZrRp9qiquQ4dt22R6OTJG7cYalzfvxUtayRELkqswF7Xbe2twfF+9flcklba4vtjjstLcNTIVILatH1gYE+Pswtfp4AgEAG3IQq5PH9X5Za5niSCvMMjQh6FPhY3O/mTswVsVggc7rCJDZxs4wO1wTutT06KnU1tQFf/n7MNbZiYQKr0uqLvgpjdm2DYDpPAGA1DFmEJbz4eoUlytwrKTlpmq89thIVxrScT6aGKroXrXPWG5ZkqXM+PT0rQ84JmZgOl4jI9IC+vil/DwAACGSwrI6uYXnjfJNljmfrjgJT9qvmk2lh8VDFBe6rHwxbtIrevo8CeEjEOlmzJjxgr3FV/h4AAIBABkv6zotnLFHmXgkNC5W1Oeb11sRoUODjVlvwDFu0CKfzo3PunpnzDF0MVKr8PQAAAIEMllNc2iFnWq0zCT5rQ6ap+1c9W6qHa7WiQtcuGap4PSsNW+wfmrjh7xPuEImIygrYa/3Eu+/yhgcAAEtQ1AOmeu41a63RVHTnFpk2+RhWG8fUHLSJFQqDLAxbNLva4vDIlLjGp5bcHxKeI2smB+Xq1cArhV9fXy+HHnggYN/LYRHhkpKUZLvjjoqO0XRbdmyDYDtPAEAgAz706rFaaRoctdD/8CMNWXtsJaqHazVVF72dg2aFaovDIzevYbkwdHHUURlw13tdQ0NAv5+T54PIgYMHg/ozraCgwHMDAMAXDFmEKVSZ+++9VW6pY9q4Nd8yx6LCWLgPQxdVgPOWFYYtDlxZvqKmGroYHbs+8K750VG53NnJmx8AANyAHjIYrrm1zXP7w0+kWOzIhkS6zwbJOz/C1N3v26vmiq00X+zugGv2ssoaz80bcbGxct+hj/OBAQQ4b4a6LjdksyB15aGccVHefdXTYlv+vJab7etgeqzfx8wwYhDIgEXu2L1TRoZHaAhgBQmJCTQCEAT8Ger6l58p1Ow4tNiWlsN2t26Il+/+wS6/txPsQ6lBIAOWyM3J9twAAACsrK+3TzIyM2gI6I45ZAAAAMAiFy82yKmTJz3BDNATPWQAAAAG4Iu9vUzPTItz1CXFJWckJztbtmzZIrGxsTQMCGQAAAB2pL7Yw566urulv79PNqxfL9u276BBoCmGLAIAAAArmJ6Zlbb2dulkCRNojB4yAAAAHYRFhFN23caco05PCFuwYf062bp1u4SHh9E4IJABAABYXfJ8GKPsun2pgh6DDocnVG/bscNzPgECGQAAAGCAyKgo+djGjZKXl0djgEAGAAAAGGnv3r00AgxBUQ8AAAAAIJABAAAAAIEMAAAAAEAgAwAAAAACGQAAAACAQAYAAAAABDIAAAAAAIEMAAAAAAhkAAAAAAACGQAAAAAQyAAAAAAABDIAAAAAIJABAAAAAIGMJgAAAAAAAhkAAAAAEMgAAAAAAAQyAAAAACCQAQAAAAAIZAAAAABAIAMAAAAAEMgAAAAAgEAGAAAAACCQAQAAAACBDAAAAABAIAMAAAAAAhkAAAAAEMgAAAAAAAQyAAAAACCQAQAAAAAIZAAAAABAIAMAAAAAEMgAAAAAgEAGAAAAACCQAQAAAACBDAAAAABAIAMAAAAAAhkAAAAAgEAGAAAAAAQyAAAAACCQAQAAAAAIZAAAAABAIAMAAAAAEMgAAAAAgEAGAAAAACCQAQAAAACBDAAAAABAIAMAAAAAAhkAAAAAgEAGAAAAAAQyAAAAAACBDAAAAAAIZAAAAABAIAMAAAAAmCCUJggc3b298tTv/S4NAQAAEKAcjmEagUAGq5qYnJLmtnYaAgAAALAJhiwCAAAAAIEMAAAAAAhkAAAAAAACGQAAAAAQyAAAAAAABDIAAAAAIJABAAAAAAhkAAAAAEAgAwAAAAAQyAAAAACAQAYAAAAAIJABAAAAAIEMAAAAAAhkNAEAAAAAEMgAAAAAgEAGAAAAACCQAQAAAACBDAAAAABAIAMAAAAAAhkAAAAAgEAGAAAAAAQyAAAAAACBDAAAAAAIZAAAAAAAAhkAAP8/e/fv2tYRwAH8YkzbJbYLbZotGQuhsZeY0MFy/wNPzVh37BKSMVCIh0JWt10z2JOhWSJDMzVE8pCEBhp5CAQCRcEttGkHK13aLuo79Sko/qlIfkp0+nzg+QlZejZfGawvd7oDAIUMAABg1I3PlUrzYhiIKREARXnn7bfCBydOCGJE/P7sWfj7n38FART2vlVHGJjaePbljhwAhvw/58RE+OraNUGMiC+vXAlPt34RBFCUaR1hYD4xZREgAb/98acQAGD41BUygET8urUlhBFhdAwgDRvVaquQbYoCYPhtPnwohBHw+NEjIQAkJBaybTEADL+79+4JYQTcuX1bCABpaLQLWV0WAMMvTmN7cP++IBL2vLEdfto0sQUgETWFDCAx5XJZCAn7dvkby90DJFjIKrIASEMcJVu9fl0QCbq1vh4eP3kiCIB01NuFrCYLgHT8UKm23ryTVhlb++6GIADSUolfjjWbzTBXKsVSNi0TgHR8PHsufHHxoiCG3I21tbD+/S1BAKSlsVGtTsUb4/kdNxUygLTc/fFB+Pny5fDphQvh3PnzAhkycYGW+JlAe44BJKnSvtEeIZvJbtvABiBRJ99/L8zOzoaPzp4NH545I5A3VNzcO+4nF7cwUMQAkvb5RrW68qKQRVkpq2enU7IBSN/UxPEwOTkpiDdEo9EI28//EgTA6Hg3K2St/aDHO+6MDe2qbADSF9/8KwAA8FqststYNLajkAEAAFCcl3rXi0KWtbR6bGvyAQAAKEQ1612VPQtZbklGAAAAhdjVt14qZEbJAAAACrFrdGxXIetobQ15AQAAHJmlve7cVcjyUbJleQEAAByJ1b1Gx/YsZHkpi+1tU24AAAB9ibMPL+33zbEDnrgYTF0EAADox0LnvmNdF7LsSbWDmhwAAAAH+nq/qYptx5rN5oFXmCuVVrLTZ7IEAADoWjkrYwuHPWjssAdkF1kMlsIHAADoVlyPY7GbB451ecFLwSIfAAAA3ZSx+YM+N/bKhSy/2Hx2VOULAADQfxmLDv0M2U4+UwYAANB/GeupkOWlbCk7XZU5AABAa+PnxV6e2FMhy0vZfHa6mR2T8gcAAEZQa9PnrIyt9HqBsV6fmK+nfzo7yl4HAABgxMT1NWb6KWNRzyNknfLRsviLnPK6AAAACXuaHUv9FrEjLWQdxWwx/nKKGQAAkJg4PXE5Hq+6cMfACtmOYhaPktcNAAAYYpt5CVsp4uKFFLKOYnY6Oy3k5WzaawkAAAyBOC0xLmC4khWxWpE/qNBCtqOcTYX/N5eeyc+xrJnaCAAAvE5xKmKt46hkJaw+qB8+sEJ2SFGb8XcAAAAMUH2QxWs//wkwAPlvKNjswwBjAAAAAElFTkSuQmCC;" vertex="1" parent="1">
          <mxGeometry x="892.62" y="498.82" width="107.38" height="62.35" as="geometry" />
        </mxCell>
      </root>
    </mxGraphModel>
  </diagram>
</mxfile>
